<svg width="387" height="161" viewBox="0 0 387 161" fill="none" xmlns="http://www.w3.org/2000/svg">
<mask id="mask0_255_118" style="mask-type:luminance" maskUnits="userSpaceOnUse" x="21" y="45" width="116" height="116">
<path d="M136.95 45.6687H21.95V160.71H136.95V45.6687Z" fill="white"/>
</mask>
<g mask="url(#mask0_255_118)">
<path d="M93.8251 128.355V149.925C93.8251 151.832 93.0678 153.661 91.72 155.009C90.372 156.358 88.544 157.115 86.6377 157.115H72.2626C70.3563 157.115 68.5283 156.358 67.1803 155.009C65.8322 153.661 65.0749 151.832 65.0749 149.925V128.355" stroke="#E5E5E5" stroke-width="8.75" stroke-linecap="round" stroke-linejoin="round"/>
<path d="M65.0749 142.735H93.8251" stroke="#E5E5E5" stroke-width="8.75" stroke-linecap="round" stroke-linejoin="round"/>
<path d="M79.45 49.2638V56.4539" stroke="#E5E5E5" stroke-width="8.75" stroke-linecap="round" stroke-linejoin="round"/>
<path d="M29.1376 99.5946H36.325" stroke="#E5E5E5" stroke-width="8.75" stroke-linecap="round" stroke-linejoin="round"/>
<path d="M39.9188 63.644L45.1896 68.725" stroke="#E5E5E5" stroke-width="8.75" stroke-linecap="round" stroke-linejoin="round"/>
<path d="M129.763 99.5946H122.575" stroke="#E5E5E5" stroke-width="8.75" stroke-linecap="round" stroke-linejoin="round"/>
<path d="M118.982 63.644L113.711 68.725" stroke="#E5E5E5" stroke-width="8.75" stroke-linecap="round" stroke-linejoin="round"/>
<path d="M65.0749 97.1978C66.9812 97.1978 68.8096 97.9554 70.1573 99.3036C71.5053 100.652 72.2626 102.481 72.2626 104.388V128.355" stroke="#E5E5E5" stroke-width="8.75" stroke-linecap="round" stroke-linejoin="round"/>
<path d="M86.6377 128.355V104.388C86.6377 102.481 87.3947 100.652 88.7427 99.3036C90.0907 97.9554 91.9188 97.1978 93.8251 97.1978" stroke="#E5E5E5" stroke-width="8.75" stroke-linecap="round" stroke-linejoin="round"/>
<path d="M64.6919 128.355H94.2084C99.5519 125.707 104.038 121.602 107.15 116.513C110.262 111.424 111.871 105.559 111.794 99.5946C111.646 91.0595 108.191 82.9152 102.157 76.8793C96.1233 70.8432 87.982 67.3868 79.45 67.239C70.9183 67.3868 62.777 70.8432 56.7432 76.8793C50.7092 82.9152 47.2542 91.0595 47.1064 99.5946C47.0289 105.559 48.6388 111.424 51.7503 116.513C54.862 121.602 59.3484 125.707 64.6919 128.355Z" stroke="#E5E5E5" stroke-width="8.75" stroke-linecap="round" stroke-linejoin="round"/>
</g>
<path d="M350.969 13V30H373.869V42.5H350.969V59.85H380.869V72.85H333.969V0H380.869V13H350.969Z" fill="#E5E5E5"/>
<path d="M327.427 72.85H310.527C309.427 72.85 308.527 72.5833 307.826 72.05C307.16 71.5167 306.627 70.8833 306.227 70.15L291.627 44.65C291.36 45.3833 291.06 46.0167 290.727 46.55L277.127 70.15C276.66 70.8167 276.11 71.4333 275.477 72C274.843 72.5667 274.026 72.85 273.026 72.85H257.227L280.677 35.35L258.127 0H275.026C276.126 0 276.927 0.149999 277.427 0.449997C277.96 0.716664 278.426 1.18333 278.826 1.85L293.326 26.4C293.493 25.9667 293.677 25.55 293.877 25.15C294.11 24.75 294.36 24.3333 294.627 23.9L307.326 2.1C307.793 1.36666 308.276 0.833331 308.776 0.499998C309.31 0.166665 309.96 0 310.727 0H326.927L304.076 34.65L327.427 72.85Z" fill="#E5E5E5"/>
<path d="M220.424 59.5C222.691 59.5 224.707 59.1333 226.474 58.4C228.274 57.6333 229.791 56.55 231.024 55.15C232.257 53.75 233.191 52.05 233.824 50.05C234.491 48.0167 234.824 45.7167 234.824 43.15V0H251.724V43.15C251.724 47.6167 250.991 51.7167 249.524 55.45C248.091 59.1833 246.024 62.4 243.324 65.1C240.624 67.8 237.341 69.9 233.474 71.4C229.607 72.9 225.257 73.65 220.424 73.65C215.557 73.65 211.191 72.9 207.324 71.4C203.457 69.9 200.174 67.8 197.474 65.1C194.774 62.4 192.707 59.1833 191.274 55.45C189.841 51.7167 189.124 47.6167 189.124 43.15V0H206.024V43.1C206.024 45.6667 206.341 47.9667 206.974 50C207.641 52 208.591 53.7167 209.824 55.15C211.057 56.55 212.557 57.6333 214.324 58.4C216.124 59.1333 218.157 59.5 220.424 59.5Z" fill="#E5E5E5"/>
<path d="M182.85 59.35V72.85H138.95V0H155.85V59.35H182.85Z" fill="#E5E5E5"/>
<path d="M360.477 122.25H386.377V153C382.643 155.733 378.66 157.717 374.427 158.95C370.227 160.183 365.827 160.8 361.227 160.8C355.227 160.8 349.76 159.867 344.827 158C339.927 156.1 335.727 153.5 332.227 150.2C328.727 146.867 326.027 142.933 324.127 138.4C322.227 133.833 321.277 128.883 321.277 123.55C321.277 118.117 322.177 113.133 323.977 108.6C325.777 104.033 328.343 100.1 331.677 96.8C335.043 93.5 339.093 90.9333 343.827 89.1C348.593 87.2667 353.91 86.35 359.777 86.35C362.81 86.35 365.66 86.6 368.327 87.1C370.993 87.6 373.443 88.2833 375.677 89.15C377.943 90.0167 380.01 91.05 381.877 92.25C383.743 93.45 385.41 94.75 386.877 96.15L381.977 103.6C381.21 104.767 380.21 105.483 378.977 105.75C377.777 106.017 376.477 105.717 375.077 104.85C373.743 104.05 372.477 103.367 371.277 102.8C370.11 102.2 368.91 101.717 367.677 101.35C366.443 100.983 365.143 100.717 363.777 100.55C362.41 100.383 360.877 100.3 359.177 100.3C356.01 100.3 353.16 100.867 350.627 102C348.093 103.1 345.927 104.667 344.127 106.7C342.36 108.733 340.993 111.183 340.027 114.05C339.06 116.883 338.577 120.05 338.577 123.55C338.577 127.417 339.11 130.85 340.177 133.85C341.243 136.85 342.743 139.383 344.677 141.45C346.643 143.517 348.977 145.1 351.677 146.2C354.41 147.267 357.427 147.8 360.727 147.8C362.76 147.8 364.593 147.6 366.227 147.2C367.893 146.8 369.51 146.267 371.077 145.6V134.55H363.877C362.81 134.55 361.977 134.267 361.377 133.7C360.777 133.133 360.477 132.417 360.477 131.55V122.25Z" fill="#E5E5E5"/>
<path d="M311.342 87.15V160H302.542C301.242 160 300.142 159.8 299.242 159.4C298.376 158.967 297.509 158.233 296.642 157.2L262.292 113.75C262.426 115.05 262.509 116.317 262.542 117.55C262.609 118.75 262.642 119.883 262.642 120.95V160H247.742V87.15H256.642C257.376 87.15 257.992 87.1833 258.492 87.25C258.992 87.3167 259.442 87.45 259.842 87.65C260.242 87.8167 260.626 88.0667 260.992 88.4C261.359 88.7333 261.776 89.1833 262.242 89.75L296.892 133.5C296.726 132.1 296.609 130.75 296.542 129.45C296.476 128.117 296.442 126.867 296.442 125.7V87.15H311.342Z" fill="#E5E5E5"/>
<path d="M233.688 160H216.688V87.15H233.688V160Z" fill="#E5E5E5"/>
<path d="M210.944 87.15L181.744 160H166.444L137.244 87.15H150.844C152.31 87.15 153.494 87.5 154.394 88.2C155.294 88.8667 155.977 89.7333 156.444 90.8L170.544 129.8C171.21 131.5 171.86 133.367 172.494 135.4C173.127 137.4 173.727 139.5 174.294 141.7C174.76 139.5 175.277 137.4 175.844 135.4C176.444 133.367 177.077 131.5 177.744 129.8L191.744 90.8C192.11 89.8667 192.76 89.0333 193.694 88.3C194.66 87.5333 195.844 87.15 197.244 87.15H210.944Z" fill="#E5E5E5"/>
<path d="M43.9 146.5V160H0V87.15H16.9V146.5H43.9Z" fill="#E5E5E5"/>
</svg>
